<svg width="1000" height="1000" xmlns="http://www.w3.org/2000/svg">
    <!-- griglia -->
    <!-- prima riga -->
    <line x1="0" y1="300" x2="900" y2="300" style="fill:none; stroke-width:50; stroke:black"/>

    <!-- seconda riga -->
    <line x1="0" y1="600" x2="900" y2="600" style="fill:none; stroke-width:50; stroke:black"/>

    <!-- prima colonna -->
    <line x1="300" y1="0" x2="300" y2="900" style="fill:none; stroke-width:50; stroke:black"/>

    <!-- seconda colonna -->
    <line x1="600" y1="0" x2="600" y2="900" style="fill:none; stroke-width:50; stroke:black"/>



    <!-- riempio griglia -->
    <!-- prima diagonale -->
    <line x1="10" y1="10" x2="250" y2="250" style="fill:none; stroke-width:50; stroke:orange"/>

    <!-- seconda diagonale -->
    <line x1="250" y1="10" x2="10" y2="250" style="fill:none; stroke-width:50; stroke:orange"/>

    <!-- prima diagonale -->
    <line x1="350" y1="350" x2="550" y2="550" style="fill:none; stroke-width:50; stroke:orange"/>

    <!-- seconda diagonale -->
    <line x1="550" y1="350" x2="350" y2="550" style="fill:none; stroke-width:50; stroke:orange"/>

    <!-- prima diagonale -->
    <line x1="650" y1="650" x2="850" y2="850" style="fill:none; stroke-width:50; stroke:orange"/>

    <!-- seconda diagonale -->
    <line x1="850" y1="650" x2="650" y2="850" style="fill:none; stroke-width:50; stroke:orange"/>

    <!-- prima diagonale -->
    <line x1="350" y1="10" x2="550" y2="250" style="fill:none; stroke-width:50; stroke:orange"/>

    <!-- seconda diagonale -->
    <line x1="550" y1="10" x2="350" y2="250" style="fill:none; stroke-width:50; stroke:orange"/>

    <circle cx="150" cy="750" r="100" fill="none" stroke="blue" stroke-width="50" />

    <circle cx="450" cy="750" r="100" fill="none" stroke="blue" stroke-width="50" />

    <circle cx="750" cy="150" r="100" fill="none" stroke="blue" stroke-width="50" />

    <circle cx="750" cy="450" r="100" fill="none" stroke="blue" stroke-width="50" />

    <circle cx="150" cy="450" r="100" fill="none" stroke="blue" stroke-width="50" />
</svg>